<?xml version="1.0" standalone="no"?>
<!DOCTYPE svg PUBLIC "-//W3C//DTD SVG 20010904//EN"
 "http://www.w3.org/TR/2001/REC-SVG-20010904/DTD/svg10.dtd">
<svg version="1.0" xmlns="http://www.w3.org/2000/svg"
 width="1630.000000pt" height="1630.000000pt" viewBox="0 0 1630.000000 1630.000000"
 preserveAspectRatio="xMidYMid meet">
<metadata>
Created by potrace 1.11, written by Peter Selinger 2001-2013
</metadata>
<g transform="translate(0.000000,1630.000000) scale(0.100000,-0.100000)"
fill="#000000" stroke="none">
<path d="M1145 16274 c-28 -15 -103 -60 -168 -101 -229 -145 -294 -208 -450
-436 -161 -234 -193 -311 -243 -595 -3 -15 -16 -65 -30 -112 -14 -47 -31 -107
-39 -135 -23 -85 -52 -186 -79 -275 -15 -47 -29 -98 -32 -114 -3 -16 -6 -32
-8 -35 -6 -9 -17 -119 -21 -197 -4 -69 -11 -133 -20 -184 -10 -50 -14 -66 -34
-140 -20 -74 -20 -99 -21 -1500 0 -1626 -11 -1446 100 -1675 37 -77 73 -160
80 -185 59 -224 109 -338 300 -680 56 -102 116 -210 133 -240 62 -113 182
-317 219 -372 21 -31 38 -59 38 -61 0 -3 61 -95 135 -206 74 -111 135 -206
135 -211 0 -4 4 -10 8 -12 4 -1 46 -64 92 -138 90 -145 160 -241 200 -276 77
-67 140 -136 147 -161 14 -53 11 -60 -98 -301 -16 -34 -49 -122 -75 -195 -53
-152 -133 -322 -262 -561 -51 -93 -92 -175 -92 -182 0 -8 -5 -14 -10 -14 -6 0
-9 -3 -8 -7 1 -5 -20 -53 -46 -108 -88 -181 -130 -318 -141 -458 -21 -271 -21
-269 -111 -494 -43 -108 -66 -172 -79 -223 -11 -44 -18 -80 -20 -100 -2 -14
-6 -50 -9 -80 -4 -30 -9 -100 -11 -155 -7 -167 -27 -256 -92 -415 -95 -233
-108 -355 -60 -551 15 -58 30 -123 33 -145 3 -21 8 -820 10 -1774 1 -954 5
-1748 7 -1765 15 -93 20 -117 38 -185 11 -41 22 -82 26 -90 3 -8 7 -18 8 -22
2 -5 3 -9 5 -10 1 -2 3 -10 5 -18 17 -82 96 -244 143 -296 75 -82 81 -84 286
-84 l183 0 44 34 c54 42 71 62 108 129 86 152 95 398 24 635 -32 109 -43 157
-50 222 -8 71 -8 2894 -1 2940 13 78 32 94 97 79 64 -14 189 -64 310 -124 161
-79 199 -95 281 -116 69 -17 79 -19 160 -26 99 -8 1996 -8 2080 0 157 16 238
42 429 133 63 30 127 58 143 61 16 3 31 10 34 14 3 5 13 9 22 9 9 0 30 7 46
15 15 8 34 15 41 15 21 0 195 78 250 113 97 60 121 78 212 160 224 199 391
383 483 532 50 79 84 118 108 122 17 2 69 -11 107 -27 11 -5 85 -32 165 -60
80 -29 150 -55 155 -58 6 -4 12 -7 15 -7 3 -1 23 -9 45 -19 60 -27 89 -39 95
-41 3 0 59 -27 124 -59 181 -87 295 -121 442 -132 101 -8 388 -7 482 0 183 15
326 91 410 216 39 60 110 231 104 253 -1 4 2 7 8 7 5 0 10 8 10 17 0 10 11 47
24 83 37 99 124 377 139 445 13 56 16 234 4 280 -21 84 -33 117 -60 168 -17
31 -35 57 -39 57 -5 0 -8 5 -8 11 0 22 -115 125 -185 167 -62 36 -160 70 -250
87 -16 3 -93 8 -170 10 -223 9 -277 23 -411 105 -70 43 -117 70 -234 135 -110
61 -125 70 -128 78 -2 4 -9 7 -15 7 -7 0 -23 10 -37 23 -14 12 -45 38 -70 58
-25 20 -64 54 -86 75 -23 22 -67 62 -99 89 -67 58 -239 227 -275 270 -14 17
-41 53 -60 80 -19 28 -37 52 -40 55 -6 6 -23 36 -63 110 -58 109 -80 146 -129
223 -28 42 -54 77 -59 77 -5 0 -9 5 -9 12 0 20 -193 202 -265 249 -106 70
-232 107 -350 103 -47 -1 -64 -4 -140 -20 -75 -16 -191 -80 -270 -149 -113
-99 -278 -265 -317 -317 -88 -121 -163 -279 -191 -404 -26 -114 -28 -142 -32
-320 -2 -94 -8 -189 -15 -213 -10 -37 -61 -101 -81 -101 -4 0 -20 -5 -36 -12
-15 -6 -32 -12 -38 -14 -94 -25 -204 -80 -374 -188 -57 -36 -110 -66 -117 -66
-7 0 -28 -6 -46 -14 -49 -22 -70 -29 -98 -33 -96 -15 -275 -65 -464 -128 -203
-67 -299 -96 -366 -109 -14 -3 -59 -14 -100 -25 -263 -73 -265 -73 -587 -74
-354 0 -412 6 -414 41 -4 48 2 115 17 202 3 19 8 51 10 70 10 97 18 134 46
210 21 60 135 291 147 300 4 3 17 21 29 40 11 20 31 47 43 60 96 111 241 373
264 480 37 166 263 608 313 610 6 0 12 4 12 9 0 10 95 59 175 89 28 10 59 23
70 27 11 5 22 9 25 9 3 1 31 14 64 29 32 15 60 27 63 27 11 0 122 81 152 111
18 19 61 70 94 114 34 44 79 96 101 115 22 19 47 42 56 50 8 8 49 40 90 70 41
30 84 62 95 71 130 112 316 248 430 314 251 146 424 251 475 289 62 45 130
111 130 125 0 5 3 11 8 13 4 2 32 37 63 78 114 154 328 326 564 455 28 15 57
34 66 41 8 8 19 14 23 14 33 0 428 308 521 406 87 92 130 179 175 351 17 64
44 141 61 172 122 219 135 251 162 401 10 51 39 155 76 268 116 352 127 391
138 502 9 76 8 1553 0 1615 -20 156 -66 268 -147 362 -146 168 -276 304 -398
413 -40 36 -89 80 -109 98 -58 53 -153 117 -244 165 -223 118 -289 159 -343
212 -12 11 -43 38 -71 60 -27 22 -52 42 -55 45 -8 10 -132 90 -138 90 -20 0
-120 105 -172 182 -81 118 -149 184 -291 280 -63 43 -134 96 -159 118 -112
101 -188 147 -380 233 -66 29 -117 75 -173 154 -73 103 -110 141 -179 186 -26
16 -99 17 -1185 17 l-1158 0 -50 -26z m3633 -10428 c15 -8 54 -45 87 -82 75
-85 138 -148 184 -182 187 -141 211 -230 98 -366 -98 -119 -212 -235 -270
-274 -37 -25 -204 -113 -217 -114 -8 -1 -33 -9 -55 -18 -11 -4 -47 -18 -80
-31 -76 -29 -229 -106 -267 -136 -24 -19 -99 -43 -151 -50 -68 -8 -1602 -9
-1688 0 -82 8 -125 22 -309 102 -80 35 -178 76 -217 93 -81 34 -269 93 -353
112 -30 7 -70 19 -89 26 -31 13 -33 16 -28 50 7 42 29 69 72 92 25 13 89 16
415 18 402 2 521 7 599 25 25 6 53 12 61 14 8 2 58 15 110 28 135 36 147 37
355 51 80 5 225 46 290 81 33 18 85 46 115 62 86 47 135 61 240 68 127 9 172
14 203 20 60 12 177 50 177 57 0 5 6 8 13 8 6 0 69 37 139 83 130 84 325 200
419 250 58 30 106 34 147 13z"/>
<path d="M12738 11054 c-2 -1 -20 -5 -40 -8 -80 -12 -175 -61 -228 -115 -118
-120 -139 -312 -52 -455 84 -137 269 -208 450 -172 58 11 155 61 198 102 121
114 155 287 85 427 -17 34 -42 74 -55 89 -37 41 -126 95 -188 113 -48 14 -163
27 -170 19z"/>
<path d="M15775 11045 c-237 -55 -374 -263 -312 -475 50 -170 211 -280 403
-275 139 4 252 59 334 162 66 84 94 230 60 318 -6 17 -12 32 -12 35 0 3 -9 23
-20 44 -48 94 -149 164 -278 192 -43 10 -131 9 -175 -1z"/>
<path d="M10140 10820 c-89 -23 -144 -53 -201 -110 -167 -167 -144 -430 50
-564 90 -63 237 -88 349 -60 59 15 138 50 160 71 7 7 21 18 30 25 42 32 87
104 108 177 22 77 23 119 3 196 -51 196 -285 320 -499 265z"/>
</g>
</svg>
